<mxfile host="app.diagrams.net" modified="2020-10-15T10:45:19.648Z" agent="5.0 (Macintosh; Intel Mac OS X 10_15_3) AppleWebKit/537.36 (KHTML, like Gecko) Chrome/86.0.4240.80 Safari/537.36" etag="YbhT_6RGUmMauHhMFHyl" version="13.7.6" type="github">
  <diagram id="pv4QLUC8P7uYkKrd3EWh" name="Page-1">
    <mxGraphModel dx="626" dy="499" grid="1" gridSize="10" guides="1" tooltips="1" connect="1" arrows="1" fold="1" page="1" pageScale="1" pageWidth="850" pageHeight="1100" math="0" shadow="0">
      <root>
        <mxCell id="0" />
        <mxCell id="1" parent="0" />
        <mxCell id="herYgURXXc1vALCU8HwU-31" style="edgeStyle=orthogonalEdgeStyle;rounded=0;orthogonalLoop=1;jettySize=auto;html=1;exitX=1;exitY=0.5;exitDx=0;exitDy=0;entryX=0;entryY=0.5;entryDx=0;entryDy=0;" edge="1" parent="1" source="herYgURXXc1vALCU8HwU-1" target="herYgURXXc1vALCU8HwU-2">
          <mxGeometry relative="1" as="geometry" />
        </mxCell>
        <mxCell id="herYgURXXc1vALCU8HwU-33" value="&lt;br&gt;Intuition" style="edgeLabel;html=1;align=center;verticalAlign=middle;resizable=0;points=[];" vertex="1" connectable="0" parent="herYgURXXc1vALCU8HwU-31">
          <mxGeometry x="0.1" y="-3" relative="1" as="geometry">
            <mxPoint x="-6" y="-23" as="offset" />
          </mxGeometry>
        </mxCell>
        <mxCell id="herYgURXXc1vALCU8HwU-1" value="Slow&lt;br&gt;Continuous" style="whiteSpace=wrap;html=1;aspect=fixed;" vertex="1" parent="1">
          <mxGeometry x="180" y="340" width="80" height="80" as="geometry" />
        </mxCell>
        <mxCell id="herYgURXXc1vALCU8HwU-2" value="Fast&lt;br&gt;Discrete" style="whiteSpace=wrap;html=1;aspect=fixed;" vertex="1" parent="1">
          <mxGeometry x="380" y="340" width="80" height="80" as="geometry" />
        </mxCell>
        <mxCell id="herYgURXXc1vALCU8HwU-30" style="edgeStyle=orthogonalEdgeStyle;rounded=0;orthogonalLoop=1;jettySize=auto;html=1;exitX=1;exitY=0.5;exitDx=0;exitDy=0;entryX=0;entryY=0.5;entryDx=0;entryDy=0;" edge="1" parent="1" source="herYgURXXc1vALCU8HwU-3" target="herYgURXXc1vALCU8HwU-4">
          <mxGeometry relative="1" as="geometry" />
        </mxCell>
        <mxCell id="herYgURXXc1vALCU8HwU-44" value="Cybernetics" style="edgeLabel;html=1;align=center;verticalAlign=middle;resizable=0;points=[];" vertex="1" connectable="0" parent="herYgURXXc1vALCU8HwU-30">
          <mxGeometry x="-0.1167" y="-3" relative="1" as="geometry">
            <mxPoint x="7" y="7" as="offset" />
          </mxGeometry>
        </mxCell>
        <mxCell id="herYgURXXc1vALCU8HwU-3" value="Slow&lt;br&gt;Discrete" style="whiteSpace=wrap;html=1;aspect=fixed;" vertex="1" parent="1">
          <mxGeometry x="180" y="430" width="80" height="80" as="geometry" />
        </mxCell>
        <mxCell id="herYgURXXc1vALCU8HwU-4" value="Fast&lt;br&gt;Continuous" style="whiteSpace=wrap;html=1;aspect=fixed;" vertex="1" parent="1">
          <mxGeometry x="380" y="430" width="80" height="80" as="geometry" />
        </mxCell>
        <mxCell id="herYgURXXc1vALCU8HwU-11" value="Part&lt;br&gt;Evolution" style="text;html=1;align=center;verticalAlign=middle;resizable=0;points=[];autosize=1;" vertex="1" parent="1">
          <mxGeometry x="190" y="115" width="60" height="30" as="geometry" />
        </mxCell>
        <mxCell id="herYgURXXc1vALCU8HwU-12" value="Whole&lt;br&gt;Evolution" style="text;html=1;align=center;verticalAlign=middle;resizable=0;points=[];autosize=1;" vertex="1" parent="1">
          <mxGeometry x="390" y="115" width="60" height="30" as="geometry" />
        </mxCell>
        <mxCell id="herYgURXXc1vALCU8HwU-28" style="edgeStyle=orthogonalEdgeStyle;rounded=0;orthogonalLoop=1;jettySize=auto;html=1;exitX=1;exitY=0.5;exitDx=0;exitDy=0;" edge="1" parent="1" source="herYgURXXc1vALCU8HwU-13" target="herYgURXXc1vALCU8HwU-15">
          <mxGeometry relative="1" as="geometry" />
        </mxCell>
        <mxCell id="herYgURXXc1vALCU8HwU-32" value="DNA/ Culture" style="edgeLabel;html=1;align=center;verticalAlign=middle;resizable=0;points=[];" vertex="1" connectable="0" parent="herYgURXXc1vALCU8HwU-28">
          <mxGeometry x="-0.15" y="-2" relative="1" as="geometry">
            <mxPoint x="9" y="-12" as="offset" />
          </mxGeometry>
        </mxCell>
        <mxCell id="herYgURXXc1vALCU8HwU-13" value="Fast&lt;br&gt;Continous" style="whiteSpace=wrap;html=1;aspect=fixed;" vertex="1" parent="1">
          <mxGeometry x="180" y="160" width="80" height="80" as="geometry" />
        </mxCell>
        <mxCell id="herYgURXXc1vALCU8HwU-26" style="edgeStyle=orthogonalEdgeStyle;rounded=0;orthogonalLoop=1;jettySize=auto;html=1;exitX=1;exitY=0.5;exitDx=0;exitDy=0;entryX=0;entryY=0.5;entryDx=0;entryDy=0;" edge="1" parent="1" source="herYgURXXc1vALCU8HwU-14" target="herYgURXXc1vALCU8HwU-16">
          <mxGeometry relative="1" as="geometry">
            <Array as="points">
              <mxPoint x="320" y="290" />
              <mxPoint x="320" y="290" />
            </Array>
          </mxGeometry>
        </mxCell>
        <mxCell id="herYgURXXc1vALCU8HwU-27" value="Computational&lt;br&gt;Simulation" style="edgeLabel;html=1;align=center;verticalAlign=middle;resizable=0;points=[];" vertex="1" connectable="0" parent="herYgURXXc1vALCU8HwU-26">
          <mxGeometry x="0.3" y="2" relative="1" as="geometry">
            <mxPoint x="-18" y="22" as="offset" />
          </mxGeometry>
        </mxCell>
        <mxCell id="herYgURXXc1vALCU8HwU-14" value="Fast&lt;br&gt;Discrete" style="whiteSpace=wrap;html=1;aspect=fixed;" vertex="1" parent="1">
          <mxGeometry x="180" y="250" width="80" height="80" as="geometry" />
        </mxCell>
        <mxCell id="herYgURXXc1vALCU8HwU-15" value="Slow&lt;br&gt;Discrete" style="whiteSpace=wrap;html=1;aspect=fixed;" vertex="1" parent="1">
          <mxGeometry x="380" y="160" width="80" height="80" as="geometry" />
        </mxCell>
        <mxCell id="herYgURXXc1vALCU8HwU-16" value="Slow&lt;br&gt;Continuous" style="whiteSpace=wrap;html=1;aspect=fixed;" vertex="1" parent="1">
          <mxGeometry x="380" y="250" width="80" height="80" as="geometry" />
        </mxCell>
        <mxCell id="herYgURXXc1vALCU8HwU-35" value="" style="endArrow=classic;html=1;exitX=1;exitY=0.5;exitDx=0;exitDy=0;entryX=-0.062;entryY=0.425;entryDx=0;entryDy=0;entryPerimeter=0;" edge="1" parent="1" source="herYgURXXc1vALCU8HwU-1" target="herYgURXXc1vALCU8HwU-4">
          <mxGeometry width="50" height="50" relative="1" as="geometry">
            <mxPoint x="300" y="510" as="sourcePoint" />
            <mxPoint x="350" y="460" as="targetPoint" />
          </mxGeometry>
        </mxCell>
        <mxCell id="herYgURXXc1vALCU8HwU-43" value="Generative&lt;br&gt;Model" style="edgeLabel;html=1;align=center;verticalAlign=middle;resizable=0;points=[];" vertex="1" connectable="0" parent="herYgURXXc1vALCU8HwU-35">
          <mxGeometry x="-0.5056" y="1" relative="1" as="geometry">
            <mxPoint x="31.14" y="20.17" as="offset" />
          </mxGeometry>
        </mxCell>
        <mxCell id="herYgURXXc1vALCU8HwU-40" value="" style="endArrow=classic;html=1;exitX=1;exitY=0.5;exitDx=0;exitDy=0;" edge="1" parent="1" source="herYgURXXc1vALCU8HwU-13">
          <mxGeometry width="50" height="50" relative="1" as="geometry">
            <mxPoint x="270" y="200" as="sourcePoint" />
            <mxPoint x="376" y="290" as="targetPoint" />
          </mxGeometry>
        </mxCell>
        <mxCell id="herYgURXXc1vALCU8HwU-45" value="Renormalization" style="edgeLabel;html=1;align=center;verticalAlign=middle;resizable=0;points=[];" vertex="1" connectable="0" parent="herYgURXXc1vALCU8HwU-40">
          <mxGeometry x="-0.2867" y="3" relative="1" as="geometry">
            <mxPoint x="17.08" y="20.490000000000002" as="offset" />
          </mxGeometry>
        </mxCell>
      </root>
    </mxGraphModel>
  </diagram>
</mxfile>
